<svg width="354" height="57" fill="none" xmlns="http://www.w3.org/2000/svg"><path d="M11.386 31.485a4.733 4.733 0 0 0-2.201 1.472c-.58.69-.933 1.445-1.06 2.263a4.417 4.417 0 0 0 .313 2.426c.335.8.964 1.444 1.888 1.935.217 0 .353.091.408.273.054.181-.028.272-.245.272a5.188 5.188 0 0 1-2.337-1.117c-1.25-1.036-1.938-2.372-2.065-4.007a6.307 6.307 0 0 1 .231-2.372 8.464 8.464 0 0 1 .937-2.1 7.93 7.93 0 0 1 1.74-1.744c.036-.036.14-.118.312-.245s.34-.245.503-.354c.163-.11.407-.282.733-.518l-1.005-4.853a34.752 34.752 0 0 0-2.636 2.467c-.87.9-1.657 1.85-2.364 2.85-.706.999-1.273 2.057-1.698 3.175a9.833 9.833 0 0 0-.639 3.53c0 1.145.24 2.222.72 3.23a8.653 8.653 0 0 0 1.916 2.63 9.001 9.001 0 0 0 2.758 1.76 8.282 8.282 0 0 0 3.166.64 23.099 23.099 0 0 0 1.454-.19c.335-.055.643-.115.924-.178.28-.064.42-.132.42-.205l-.162-.763c-.707-3.58-1.377-7.006-2.01-10.277Zm.951-.109 2.228 10.822c1.287-.49 2.156-1.331 2.609-2.521a6.454 6.454 0 0 0 .312-3.626c-.244-1.227-.82-2.313-1.725-3.258-.906-.945-2.047-1.417-3.424-1.417ZM9.484 16.792c.561-.29 1.082-.727 1.562-1.309a16.473 16.473 0 0 0 2.391-3.898c.3-.69.54-1.317.72-1.88.2-.6.336-1.273.408-2.018.073-.745-.045-1.372-.353-1.88-.217-.455-.503-.718-.856-.791a1.928 1.928 0 0 0-1.06.082 3.095 3.095 0 0 0-1.005.613c-.317.282-.548.531-.693.75-.399.708-.748 1.499-1.046 2.371a12.95 12.95 0 0 0-.612 2.713 12.87 12.87 0 0 0-.04 2.698c.081.864.276 1.713.584 2.55Zm-.815.845c-.308-1.2-.58-2.376-.816-3.53a17.743 17.743 0 0 1-.353-3.558c0-.89.063-1.867.19-2.93.127-1.063.358-2.099.693-3.108A9.69 9.69 0 0 1 9.77 1.8c.589-.8 1.372-1.381 2.35-1.745A.728.728 0 0 1 12.392 0c.127 0 .277.073.449.218.172.145.353.359.543.64.19.282.358.573.503.873.145.3.253.504.326.613.49.927.847 1.913 1.074 2.958.226 1.045.357 2.085.394 3.121a22.62 22.62 0 0 1-.259 4.635 15.003 15.003 0 0 1-1.48 4.47c-.254.436-.513.877-.775 1.322a8.801 8.801 0 0 1-.938 1.295c-.072.073-.203.205-.394.395l-.584.586c-.2.2-.376.387-.53.559-.154.173-.23.277-.23.314l1.113 5.452c.007.035.557 0 .557 0 1.063.013 2.189.186 3.166.572a7.354 7.354 0 0 1 2.432 1.8 9.412 9.412 0 0 1 1.63 2.575c.408.954.612 1.922.612 2.904 0 .98-.145 1.98-.435 2.998-.743 1.926-1.93 3.353-3.56 4.28-.18.109-.439.232-.774.368-.335.136-.466.35-.394.64.435 1.98.729 3.343.883 4.09.154.746.267 1.71.34 2.889.072 1.128-.123 2.143-.585 3.051a6.15 6.15 0 0 1-1.861 2.223c-.779.574-1.49.908-2.133 1.011-.643.1-1.083.148-1.318.148a6.422 6.422 0 0 1-2.391-.464 5.925 5.925 0 0 1-2.419-1.662c-.652-.747-.978-1.655-.978-2.724 0-.675.195-1.366.584-2.075.39-.709.902-1.218 1.536-1.524.706-.364 1.345-.464 1.915-.303.571.166 1.042.475 1.413.93.372.453.63 1.004.775 1.647.145.647.136 1.249-.027 1.813-.163.564-.494 1.042-.992 1.431-.498.392-1.191.568-2.079.533.362.654.87 1.067 1.522 1.239a4.265 4.265 0 0 0 2.01.041 5.718 5.718 0 0 0 1.944-.805c.606-.389 1.082-.812 1.426-1.266.218-.327.38-.753.49-1.28.108-.53.172-1.076.19-1.65.018-.572 0-1.02-.055-1.336-.054-.32-.145-.815-.272-1.486a640.714 640.714 0 0 0-1.032-4.145c-.073-.18-.267-.24-.584-.176-.317.064-.585.123-.802.176-1.558.203-2.862.11-3.913-.27a10.335 10.335 0 0 1-4.307-2.332c-1.241-1.117-2.237-2.471-2.99-4.062C.377 35.66 0 34.452 0 33.625v-1.567c0-1.472.254-2.854.76-4.144a30.123 30.123 0 0 1 3.411-5.56 32.852 32.852 0 0 1 4.498-4.717Z" fill="#fff"/><g filter="url(#a)" fill="#fff"><path d="M52.076 41.374c-.638 0-1.17-.233-1.596-.7-.404-.466-.563-1.345-.478-2.638.085-1.335.5-3.052 1.244-5.15.745-2.097 1.713-4.566 2.905-7.406.383-.911.766-1.928 1.15-3.051a33.832 33.832 0 0 0 1.02-3.37c.277-1.144.416-2.172.416-3.083 0-.636-.086-1.187-.256-1.653-.149-.487-.425-.848-.83-1.08a4.923 4.923 0 0 0-1.5-.636 7.26 7.26 0 0 0-1.692-.191c-1.34 0-2.755.307-4.245.922-1.468.614-2.894 1.462-4.277 2.543a21.944 21.944 0 0 0-3.67 3.623c-1.064 1.356-1.873 2.766-2.426 4.228-.32.869-.553 1.685-.703 2.448a10.885 10.885 0 0 0-.223 2.066c0 1.165.213 2.14.639 2.924.446.763 1.02 1.335 1.723 1.717.724.36 1.5.54 2.33.54.788 0 1.532-.138 2.234-.413.915-.34 1.735-.912 2.458-1.717a9.903 9.903 0 0 0 1.724-2.67c.425-.996.638-1.907.638-2.733 0-.721-.191-1.325-.574-1.812-.362-.488-.969-.732-1.82-.732h-.383c-.106 0-.234.022-.383.064a.941.941 0 0 1-.223.032h-.16c-.191 0-.287-.043-.287-.127 0-.127.202-.265.606-.413.66-.212 1.277-.318 1.852-.318 1 0 1.744.296 2.234.89.49.572.734 1.303.734 2.193 0 .89-.245 1.854-.734 2.893-.49 1.017-1.213 1.992-2.17 2.924-.937.932-2.118 1.695-3.544 2.289a6.107 6.107 0 0 1-5.49-.382c-.978-.572-1.776-1.388-2.393-2.447-.617-1.06-.926-2.31-.926-3.751 0-.7.085-1.43.255-2.194.17-.762.437-1.568.798-2.415a15.962 15.962 0 0 1 2.873-4.45 20.432 20.432 0 0 1 4.054-3.497c1.51-.996 3.053-1.759 4.628-2.289 1.575-.53 3.075-.794 4.5-.794 1.256 0 2.394.222 3.416.667 1.127.488 1.915 1.187 2.362 2.098.468.89.702 1.897.702 3.02 0 1.229-.213 2.543-.639 3.941a32.295 32.295 0 0 1-1.5 4.07 126.452 126.452 0 0 0-1.947 4.704 78.411 78.411 0 0 0-1.66 4.64c-.468 1.463-.797 2.681-.989 3.656-.043.233-.075.434-.096.604-.021.19-.032.35-.032.477 0 .741.245 1.112.734 1.112.298 0 .65-.127 1.054-.381.787-.466 1.585-1.166 2.394-2.098a31.041 31.041 0 0 0 2.394-3.179 82.823 82.823 0 0 0 2.33-3.687 275.886 275.886 0 0 1 2.138-3.592 49.968 49.968 0 0 1 1.851-2.86c.34-.467.66-.806.958-1.018.298-.233.553-.35.766-.35.447 0 .67.34.67 1.017 0 .403-.096.89-.287 1.463a32.685 32.685 0 0 1-1.117 2.765 50.531 50.531 0 0 0-1.309 3.115c-.404 1.039-.67 2.013-.798 2.925-.021.233-.042.445-.064.635v.54c0 1.103.224 1.887.67 2.353.448.487 1.033.731 1.756.731.83 0 1.766-.265 2.81-.795 1.063-.53 2.127-1.229 3.19-2.098a20.746 20.746 0 0 0 2.874-2.924c.872-1.06 1.532-2.119 1.978-3.179.49-1.165.862-2.299 1.118-3.4.255-1.103.383-2.11.383-3.02 0-1.463-.32-2.65-.958-3.56-.638-.933-1.638-1.4-3-1.4-.107 0-.224.011-.351.032-.128 0-.266.011-.415.032-.51.127-.883.191-1.117.191-.277 0-.415-.064-.415-.19 0-.17.212-.361.638-.573a2.095 2.095 0 0 1 1.34-.19 4.618 4.618 0 0 1 2.873.699c.915.53 1.65 1.335 2.203 2.416.553 1.06.83 2.352.83 3.878 0 .784-.086 1.631-.256 2.543-.17.91-.457 1.864-.862 2.86a13.638 13.638 0 0 1-2.234 3.72 18.082 18.082 0 0 1-3.224 3.02c-1.17.868-2.372 1.535-3.606 2.002-1.213.487-2.352.73-3.416.73-1.213 0-2.234-.38-3.064-1.143-.808-.742-1.213-1.95-1.213-3.624 0-.7.064-1.41.192-2.13.127-.72.276-1.356.447-1.907-.362.593-.841 1.335-1.437 2.225a45.273 45.273 0 0 1-2.043 2.734 31.82 31.82 0 0 1-2.33 2.67c-.808.847-1.617 1.525-2.425 2.034-.81.53-1.575.795-2.299.795ZM81.97 37.4c-.808 0-1.404-.264-1.787-.794-.383-.551-.574-1.219-.574-2.003 0-.953.223-1.95.67-2.988.426-.975.968-1.865 1.628-2.67.66-.805 1.373-1.452 2.139-1.939.766-.509 1.51-.763 2.234-.763.808 0 1.404.265 1.787.795s.575 1.197.575 2.002c0 .975-.224 1.971-.67 2.988-.256.572-.617 1.208-1.086 1.908-.468.678-1 1.303-1.596 1.875.128.233.309.434.543.604.234.148.553.223.958.223.51 0 .989-.212 1.436-.636a7.605 7.605 0 0 0 1.277-1.526c.383-.615.723-1.23 1.021-1.844.298-.614.543-1.112.734-1.494a.33.33 0 0 1 .32-.19c.085 0 .148.042.19.127.043.063.033.17-.031.318-.128.317-.34.794-.638 1.43a20.45 20.45 0 0 1-1.086 1.939 7.55 7.55 0 0 1-1.468 1.685c-.553.466-1.17.7-1.851.7-.468 0-.873-.075-1.213-.224-.34-.169-.617-.37-.83-.603a6.364 6.364 0 0 1-1.34.794c-.447.191-.894.286-1.341.286Zm.48-.699c.574 0 1.191-.276 1.85-.826a3.037 3.037 0 0 1-.382-.795 2.6 2.6 0 0 1-.128-.763c0-.381.085-.71.256-.985.191-.276.478-.414.861-.414.277 0 .5.106.67.318.192.191.288.414.288.668 0 .063-.01.127-.032.19a.52.52 0 0 1-.032.16 10.79 10.79 0 0 0 1.022-1.717c.702-1.505 1.053-2.744 1.053-3.72 0-.486-.096-.868-.288-1.143-.191-.276-.478-.414-.861-.414-.447 0-.937.191-1.469.572-.51.382-1.01.89-1.5 1.526a12.194 12.194 0 0 0-1.245 2.13c-.34.72-.617 1.42-.83 2.098-.19.657-.287 1.229-.287 1.716 0 .424.085.763.256 1.018.17.254.436.381.798.381Z"/><path d="M94.928 37.432c-.404 0-.808-.159-1.212-.477-.405-.339-.607-.88-.607-1.62 0-.573.139-1.23.415-1.972.255-.72.596-1.42 1.022-2.098.446-.678.766-1.229.957-1.652.064-.17.096-.318.096-.445 0-.382-.245-.657-.734-.827-.468-.17-1.085-.265-1.852-.286l-.383 1.049a25.227 25.227 0 0 1-.99 2.384c-.403.911-.86 1.79-1.372 2.638-.489.848-1 1.526-1.532 2.035a.217.217 0 0 1-.16.063c-.084 0-.138-.053-.159-.159-.042-.106 0-.233.128-.381a22.968 22.968 0 0 0 2.234-3.656 31.028 31.028 0 0 0 1.66-4.132c.468-1.399.809-2.691 1.021-3.878.064-.339.181-.583.351-.731.17-.17.351-.254.543-.254.277 0 .532.137.766.413.234.254.351.625.351 1.112 0 .085-.01.18-.032.287 0 .106-.01.211-.032.317-.085.445-.34.87-.766 1.272-.404.381-.734.667-.99.858l.671.064h.766c1 0 1.99-.064 2.969-.191.042.127.063.223.063.286 0 .276-.085.625-.255 1.049a9.8 9.8 0 0 1-.479 1.144c-.085.191-.255.54-.51 1.05a42.74 42.74 0 0 0-.83 1.684 16.92 16.92 0 0 0-.766 1.844c-.192.593-.288 1.102-.288 1.525 0 .551.213.827.639.827.319 0 .67-.201 1.053-.604.383-.424.755-.932 1.117-1.526.383-.614.724-1.208 1.022-1.78.319-.593.564-1.06.734-1.399.085-.211.202-.317.35-.317.086 0 .129.074.129.222 0 .085-.032.212-.096.381-.234.488-.51 1.039-.83 1.654-.32.614-.681 1.218-1.085 1.811a8.482 8.482 0 0 1-1.277 1.558c-.447.424-.936.7-1.468.826-.064.022-.181.032-.352.032Z"/><path d="M101.049 37.496c-.894 0-1.5-.233-1.82-.7-.319-.487-.478-1.06-.478-1.716 0-.678.095-1.377.287-2.098.191-.72.362-1.325.51-1.812.341-1.187.767-2.448 1.277-3.783a60.56 60.56 0 0 1 1.724-3.973 47.868 47.868 0 0 1 1.883-3.528c.489-.827 1.011-1.441 1.564-1.844.575-.424 1.075-.636 1.5-.636.341 0 .607.128.798.382.213.233.319.593.319 1.08 0 .34-.063.742-.191 1.209-.107.466-.298.995-.575 1.589a40.308 40.308 0 0 1-2.681 4.959c-1.021 1.652-2.319 3.2-3.894 4.64-.085.276-.202.604-.351.986-.128.36-.245.731-.351 1.112-.128.573-.192 1.06-.192 1.463 0 .657.128 1.154.383 1.494.277.318.607.476.99.476.34 0 .702-.116 1.085-.35.383-.254.745-.614 1.085-1.08.511-.742.969-1.494 1.373-2.257.425-.784.745-1.388.957-1.812.128-.233.266-.35.415-.35.107 0 .16.064.16.191a.787.787 0 0 1-.096.35c-.191.424-.447.975-.766 1.653a12.995 12.995 0 0 1-1.149 2.003 6.812 6.812 0 0 1-1.628 1.684c-.617.445-1.33.668-2.138.668Zm.478-7.248a22.661 22.661 0 0 0 2.235-2.702 38.73 38.73 0 0 0 2.011-3.21 31.808 31.808 0 0 0 1.596-3.179c.148-.318.266-.667.351-1.049.106-.381.159-.7.159-.953 0-.297-.074-.445-.223-.445-.085 0-.213.084-.383.254-.17.148-.394.413-.67.795-.405.53-.852 1.25-1.341 2.161a95 95 0 0 0-1.436 2.924 68.92 68.92 0 0 0-1.341 3.02 56.809 56.809 0 0 0-.958 2.384Z"/><path d="M113.302 37.4c-.575 0-1.053-.286-1.436-.858a2.82 2.82 0 0 1-.288-.667 3.12 3.12 0 0 1-.127-.922c0-.191.01-.382.032-.572.021-.212.063-.424.127-.636a41.2 41.2 0 0 1-1.053 1.557 7.31 7.31 0 0 1-1.341 1.463 2.54 2.54 0 0 1-2.33.508c-.574-.17-.989-.466-1.245-.89-.234-.424-.351-.932-.351-1.526 0-.657.128-1.377.383-2.161.277-.784.617-1.547 1.022-2.289.425-.741.862-1.377 1.308-1.907a7.687 7.687 0 0 1 2.203-1.78c.83-.445 1.67-.668 2.521-.668.766 0 1.49.202 2.171.604.319-.593.659-1.25 1.021-1.97.362-.742.724-1.473 1.085-2.194.362-.72.681-1.377.958-1.97.277-.615.489-1.081.638-1.4.32-.74.617-1.207.894-1.398a1.77 1.77 0 0 1 1.053-.318c.234 0 .49.032.766.096.298.042.586.053.862.032-.127.127-.393.498-.798 1.112-.383.593-.84 1.356-1.372 2.289-.532.932-1.107 1.96-1.724 3.083a244.077 244.077 0 0 0-1.787 3.37 472.267 472.267 0 0 0-1.628 3.21c-.49.996-.883 1.854-1.181 2.575-.085.17-.213.519-.383 1.049-.149.508-.224.953-.224 1.335 0 .275.064.519.192.73.128.191.34.287.638.287.405 0 .809-.201 1.213-.604.426-.424.83-.932 1.213-1.526.383-.614.724-1.208 1.022-1.78.297-.593.521-1.06.67-1.399.106-.233.234-.35.383-.35.128 0 .191.096.191.287v.127a.31.31 0 0 1-.063.159 27 27 0 0 1-.798 1.653 15.95 15.95 0 0 1-1.149 1.97 7.532 7.532 0 0 1-1.501 1.654c-.553.423-1.149.635-1.787.635Zm-5.522-.953c.298 0 .67-.16 1.117-.477.447-.34.926-.869 1.436-1.59a54.838 54.838 0 0 0 2.043-3.178 77.792 77.792 0 0 0 2.266-4.037 1.37 1.37 0 0 0-.957-.381c-.596 0-1.266.275-2.011.826-.723.55-1.436 1.25-2.138 2.098a16.983 16.983 0 0 0-1.724 2.575 9.112 9.112 0 0 0-.702 1.62c-.128.488-.192.912-.192 1.272 0 .848.287 1.272.862 1.272ZM134.94 39.18c-2.213 0-4.043-.296-5.49-.89-1.426-.593-2.49-1.377-3.192-2.352-.681-.996-1.022-2.055-1.022-3.178 0-1.081.309-2.162.926-3.243.617-1.08 1.511-2.055 2.681-2.924 1.171-.89 2.596-1.579 4.277-2.066.426-.128.937-.244 1.532-.35a13.33 13.33 0 0 1 1.692-.19 9.574 9.574 0 0 1-1.819-.89 5.609 5.609 0 0 1-1.532-1.368c-.383-.53-.554-1.102-.511-1.716a5.174 5.174 0 0 1 1.021-2.67c.617-.827 1.405-1.568 2.362-2.225a15.392 15.392 0 0 1 3.16-1.653 20.964 20.964 0 0 1 3.479-1.017c1.192-.255 2.309-.382 3.352-.382.234 0 .457.01.67.032.213 0 .415.01.607.032 1.723.19 2.979.604 3.766 1.24.787.614 1.181 1.313 1.181 2.097 0 .912-.5 1.812-1.5 2.702-.979.89-2.341 1.526-4.086 1.907-.34.064-.606.096-.798.096-.319 0-.479-.064-.479-.19 0-.064.096-.16.288-.287.212-.127.5-.201.862-.223.638-.063 1.244-.317 1.819-.762a5.377 5.377 0 0 0 1.436-1.59c.383-.636.575-1.24.575-1.812 0-.593-.245-1.112-.734-1.557-.469-.466-1.288-.752-2.458-.858a4.394 4.394 0 0 0-.543-.032 4.389 4.389 0 0 0-.542-.032c-1.277 0-2.564.18-3.862.54-1.299.36-2.49.87-3.575 1.526-1.086.657-1.958 1.41-2.618 2.257-.659.848-.989 1.77-.989 2.765 0 .7.17 1.261.511 1.685.361.424.808.753 1.34.986.553.233 1.128.424 1.724.572l1.659.413c.532.127.947.286 1.245.477.298.19.405.466.319.826-.085.233-.276.392-.574.477-.298.064-.692.095-1.181.095h-1.149a23.749 23.749 0 0 0-3.383.064c-.703.042-1.426.17-2.171.381a7.647 7.647 0 0 0-3 1.622 8.377 8.377 0 0 0-2.011 2.574c-.468.954-.702 1.929-.702 2.925 0 .953.255 1.843.766 2.67.51.826 1.319 1.494 2.426 2.002 1.106.509 2.564.763 4.372.763 1.66 0 3.267-.212 4.82-.635a23.55 23.55 0 0 0 4.309-1.622c1.319-.678 2.447-1.377 3.383-2.098.766-.614 1.384-1.24 1.852-1.875.489-.636.734-1.187.734-1.653 0-.508-.287-.826-.862-.953-.468-.128-.702-.255-.702-.382s.17-.19.511-.19c.127 0 .265.01.414.031.149.021.298.074.447.16.958.465 1.437 1.122 1.437 1.97 0 1.208-.862 2.48-2.586 3.814-1.042.827-2.319 1.558-3.83 2.194a25.398 25.398 0 0 1-4.852 1.43c-1.723.36-3.457.54-5.202.54ZM149.441 37.655a218.724 218.724 0 0 0 2.203-4.578 91.646 91.646 0 0 1 2.202-4.354c.426-.763.777-1.293 1.053-1.59.298-.318.692-.477 1.181-.477.171 0 .352.032.543.096.192.042.383.063.575.063.127 0 .223-.01.287-.032-.298.17-.681.594-1.149 1.272-.468.657-.947 1.42-1.437 2.289a58.962 58.962 0 0 0-1.308 2.447c.404-.487.819-.975 1.245-1.462.446-.487.936-.954 1.468-1.399.511-.445 1.117-.9 1.819-1.366.724-.488 1.426-.89 2.107-1.208.681-.318 1.223-.477 1.628-.477.149 0 .255.01.319.032l-.351.635c-.234.403-.532.943-.894 1.622-.34.657-.691 1.366-1.053 2.13a46.474 46.474 0 0 0-.99 2.16c-.276.679-.457 1.251-.542 1.717-.064.276-.096.53-.096.763 0 .34.064.562.191.668a.638.638 0 0 0 .415.159c.405 0 .83-.212 1.277-.636a9.36 9.36 0 0 0 1.277-1.621c.425-.636.798-1.25 1.117-1.844.34-.614.585-1.08.734-1.399.085-.17.149-.264.192-.286.042-.042.106-.063.191-.063.128 0 .192.085.192.254a.787.787 0 0 1-.096.35c-.255.487-.564 1.07-.926 1.748-.34.678-.734 1.346-1.181 2.003a8.376 8.376 0 0 1-1.468 1.62c-.532.425-1.106.637-1.724.637-.425 0-.872-.149-1.34-.445-.447-.297-.67-.848-.67-1.653 0-.234.021-.477.063-.731.043-.276.117-.573.224-.89.17-.424.372-.88.606-1.367.234-.488.617-1.155 1.149-2.003.149-.233.234-.413.256-.54a1.06 1.06 0 0 0 .064-.318c0-.255-.117-.382-.352-.382-.191 0-.478.106-.861.318-.362.212-.82.583-1.373 1.113-.532.508-1.17 1.229-1.915 2.161-.723.933-1.564 2.31-2.522 4.133-.148.275-.319.423-.51.445-.17.02-.415.042-.734.063a6.135 6.135 0 0 1-.607.032.887.887 0 0 0-.479.19Z"/><path d="M164.76 37.4a2.382 2.382 0 0 1-1.596-.604c-.468-.423-.702-1.08-.702-1.97 0-.7.128-1.558.383-2.575.277-1.038.607-2.109.99-3.21.404-1.124.798-2.14 1.181-3.052h-1.692c-.149 0-.223-.106-.223-.318 0-.106.021-.201.063-.286a.304.304 0 0 1 .256-.127h1.915a40.58 40.58 0 0 1 1.149-2.352 90.91 90.91 0 0 1 1.181-2.162c.489-.848 1.011-1.483 1.564-1.907.553-.424 1.032-.636 1.436-.636a1 1 0 0 1 .798.381c.213.234.319.594.319 1.081 0 .297-.063.71-.191 1.24a8.522 8.522 0 0 1-.607 1.621l-.638 1.271a15.358 15.358 0 0 1-.766 1.463h1.532c.149 0 .224.106.224.318a.79.79 0 0 1-.064.286c-.043.084-.107.127-.192.127h-1.883a23.683 23.683 0 0 1-1.819 2.67 22.648 22.648 0 0 1-2.426 2.607c-.064.19-.149.466-.256.826-.085.36-.17.731-.255 1.113-.064.36-.128.667-.191.921l-.064.382c-.064.275-.096.53-.096.763 0 .445.106.773.319.985.213.19.458.286.734.286.171 0 .341-.021.511-.064.17-.063.362-.169.575-.317.744-.53 1.393-1.25 1.947-2.162a31.549 31.549 0 0 0 1.5-2.638c.127-.255.255-.382.383-.382.085 0 .127.064.127.191 0 .064-.031.18-.095.35a59.993 59.993 0 0 1-1.181 2.352 12.413 12.413 0 0 1-.926 1.494c-.298.381-.649.763-1.053 1.144-.298.297-.639.52-1.022.668a3.16 3.16 0 0 1-1.149.222Zm2.522-12.142h1.628c.298-.551.574-1.092.83-1.621.276-.53.521-1.06.734-1.59.149-.339.276-.72.383-1.144.106-.424.159-.752.159-.985 0-.318-.074-.477-.223-.477-.106 0-.266.095-.479.286-.191.17-.436.466-.734.89-.383.53-.766 1.218-1.149 2.066-.362.826-.745 1.685-1.149 2.575Zm-2.075 4.99a19.84 19.84 0 0 0 1.724-2.034 25.882 25.882 0 0 0 1.532-2.225h-1.5a88.07 88.07 0 0 0-.958 2.288 349.52 349.52 0 0 1-.798 1.971Z"/><path d="M171.884 37.528c-.788 0-1.501-.255-2.139-.763-.617-.509-.926-1.282-.926-2.32 0-.954.235-1.972.703-3.052a10.717 10.717 0 0 1 1.787-2.893 8.643 8.643 0 0 1 2.075-1.78c.766-.466 1.489-.7 2.17-.7.468 0 .873.128 1.213.382.362.275.543.668.543 1.176 0 .53-.202 1.113-.607 1.748-.404.636-.978 1.23-1.723 1.78a6.344 6.344 0 0 1-1.213.668c-.49.212-.979.392-1.468.54-.49.128-.894.191-1.213.191a7.363 7.363 0 0 0-.32 1.017 6.613 6.613 0 0 0-.127 1.304c0 .53.106 1.006.319 1.43.213.424.606.636 1.181.636a3.26 3.26 0 0 0 1.915-.604 6.796 6.796 0 0 0 1.532-1.494 12.17 12.17 0 0 0 1.117-1.844c.32-.614.575-1.134.766-1.557.128-.297.298-.445.511-.445.106 0 .16.053.16.159 0 .084-.032.19-.096.317-.298.636-.617 1.314-.958 2.035-.34.7-.744 1.367-1.213 2.002a5.69 5.69 0 0 1-1.691 1.494c-.639.382-1.405.573-2.298.573Zm-.575-5.595c.298 0 .798-.106 1.5-.318a5.72 5.72 0 0 0 1.915-1.08c.554-.488.979-1.018 1.277-1.59.298-.593.447-1.091.447-1.494 0-.466-.17-.7-.511-.7-.255 0-.606.17-1.053.51-.447.338-1 .91-1.66 1.716-.404.508-.787 1.06-1.149 1.653a32.571 32.571 0 0 0-.766 1.303Z"/><path d="M181.333 37.432c-.404 0-.809-.159-1.213-.477-.404-.339-.606-.88-.606-1.62 0-.573.138-1.23.415-1.972.255-.72.595-1.42 1.021-2.098.447-.678.766-1.229.958-1.652.063-.17.095-.318.095-.445 0-.382-.244-.657-.734-.827-.468-.17-1.085-.265-1.851-.286l-.383 1.049a25.113 25.113 0 0 1-.99 2.384c-.404.911-.861 1.79-1.372 2.638-.49.848-1 1.526-1.532 2.035a.219.219 0 0 1-.16.063c-.085 0-.138-.053-.159-.159-.043-.106 0-.233.127-.381a22.993 22.993 0 0 0 2.235-3.656 31.131 31.131 0 0 0 1.659-4.132c.469-1.399.809-2.691 1.022-3.878.064-.339.181-.583.351-.731.17-.17.351-.254.542-.254.277 0 .532.137.767.413.234.254.351.625.351 1.112 0 .085-.011.18-.032.287 0 .106-.011.211-.032.317-.085.445-.341.87-.766 1.272-.405.381-.734.667-.99.858l.671.064h.766c1 0 1.989-.064 2.968-.191a.993.993 0 0 1 .064.286c0 .276-.085.625-.255 1.049a9.835 9.835 0 0 1-.479 1.144c-.085.191-.256.54-.511 1.05a43.441 43.441 0 0 0-.83 1.684c-.298.615-.553 1.23-.766 1.844-.191.593-.287 1.102-.287 1.525 0 .551.213.827.638.827.319 0 .671-.201 1.054-.604.383-.424.755-.932 1.117-1.526.383-.614.723-1.208 1.021-1.78.319-.593.564-1.06.734-1.399.085-.211.202-.317.351-.317.085 0 .128.074.128.222 0 .085-.032.212-.096.381-.234.488-.51 1.039-.83 1.654a17.751 17.751 0 0 1-1.085 1.811 8.487 8.487 0 0 1-1.277 1.558c-.446.424-.936.7-1.468.826a1.29 1.29 0 0 1-.351.032Z"/><path d="M187.421 37.4a2.38 2.38 0 0 1-1.596-.604c-.468-.423-.702-1.08-.702-1.97 0-.7.128-1.558.383-2.575.277-1.038.607-2.109.99-3.21.404-1.124.798-2.14 1.181-3.052h-1.692c-.149 0-.224-.106-.224-.318 0-.106.022-.201.064-.286a.304.304 0 0 1 .256-.127h1.915c.361-.805.745-1.59 1.149-2.352a90.91 90.91 0 0 1 1.181-2.162c.489-.848 1.011-1.483 1.564-1.907.553-.424 1.032-.636 1.436-.636a1 1 0 0 1 .798.381c.213.234.319.594.319 1.081 0 .297-.064.71-.191 1.24a8.522 8.522 0 0 1-.607 1.621l-.638 1.271a15.358 15.358 0 0 1-.766 1.463h1.532c.149 0 .223.106.223.318 0 .084-.021.18-.063.286-.043.084-.107.127-.192.127h-1.883a23.816 23.816 0 0 1-1.819 2.67 22.648 22.648 0 0 1-2.426 2.607c-.064.19-.149.466-.256.826-.085.36-.17.731-.255 1.113-.064.36-.128.667-.191.921l-.064.382c-.064.275-.096.53-.096.763 0 .445.106.773.319.985.213.19.458.286.734.286.17 0 .341-.021.511-.064.17-.063.362-.169.574-.317.745-.53 1.394-1.25 1.948-2.162a31.549 31.549 0 0 0 1.5-2.638c.127-.255.255-.382.383-.382.085 0 .127.064.127.191 0 .064-.032.18-.095.35a61.436 61.436 0 0 1-1.181 2.352c-.32.593-.628 1.091-.926 1.494-.298.381-.649.763-1.053 1.144-.298.297-.639.52-1.022.668a3.16 3.16 0 0 1-1.149.222Zm2.522-12.142h1.628c.298-.551.574-1.092.83-1.621.276-.53.521-1.06.734-1.59.149-.339.276-.72.383-1.144.106-.424.159-.752.159-.985 0-.318-.074-.477-.223-.477-.107 0-.266.095-.479.286-.191.17-.436.466-.734.89-.383.53-.766 1.218-1.149 2.066-.362.826-.745 1.685-1.149 2.575Zm-2.075 4.99a19.84 19.84 0 0 0 1.724-2.034 25.882 25.882 0 0 0 1.532-2.225h-1.5a88.07 88.07 0 0 0-.958 2.288 349.52 349.52 0 0 1-.798 1.971Z"/><path d="M199.173 37.496c-.234.02-.5-.032-.798-.16-.298-.126-.564-.36-.798-.698-.213-.34-.319-.816-.319-1.431 0-.508.095-1.123.287-1.844-.255.403-.585.901-.99 1.494-.404.573-.84 1.081-1.308 1.526-.405.382-.788.657-1.149.827-.362.17-.692.254-.99.254-.553 0-1-.244-1.34-.731-.341-.509-.511-1.166-.511-1.971 0-.848.213-1.812.638-2.893.426-1.08 1.117-2.203 2.075-3.369a7.03 7.03 0 0 1 2.234-1.78c.894-.466 1.766-.7 2.618-.7.489 0 .957.085 1.404.255.447.148.841.402 1.181.763a.698.698 0 0 1 .223.508.392.392 0 0 1-.159.318c-.107.085-.245.106-.415.064-.234-.742-.734-1.113-1.5-1.113-.362 0-.777.117-1.245.35-.724.381-1.479 1.007-2.266 1.875a19.728 19.728 0 0 0-2.011 2.702c-.085.127-.224.371-.415.731-.17.36-.341.763-.511 1.208-.17.445-.287.88-.351 1.303a1.946 1.946 0 0 0-.032.287v.222c0 .7.266 1.05.798 1.05.639 0 1.362-.467 2.171-1.4a18.38 18.38 0 0 0 1.5-2.13c.447-.74.904-1.536 1.372-2.383.319-.572.617-1.05.894-1.43.277-.382.67-.573 1.181-.573.234 0 .468.032.702.096.234.063.479.074.734.031-.17.17-.404.488-.702.954-.277.466-.574.996-.894 1.59a20.075 20.075 0 0 0-.861 1.811 10.713 10.713 0 0 0-.543 1.59c-.021.127-.053.307-.096.54a6.438 6.438 0 0 0-.032.508c0 .594.171.89.511.89.34 0 .702-.2 1.085-.604.405-.402.798-.9 1.181-1.494a26.32 26.32 0 0 0 1.054-1.78c.319-.614.574-1.112.766-1.494.085-.211.212-.317.383-.317.106 0 .159.074.159.222 0 .064-.032.18-.096.35a49.37 49.37 0 0 1-.925 1.812 26.513 26.513 0 0 1-1.181 1.939 9.021 9.021 0 0 1-1.341 1.557c-.447.403-.904.625-1.372.668Z"/><path d="M207.075 24.495c-.32 0-.586-.106-.798-.318a1.26 1.26 0 0 1-.288-.826c0-.403.16-.753.479-1.05.319-.296.67-.444 1.053-.444.341 0 .618.105.83.317.213.212.319.467.319.763 0 .403-.159.763-.478 1.081a1.534 1.534 0 0 1-1.117.477ZM204.489 37.4c-.787 0-1.34-.222-1.66-.667a2.748 2.748 0 0 1-.478-1.59c0-.317.032-.635.095-.953.085-.34.181-.646.288-.922l2.138-5.436c.064-.17.096-.317.096-.445a.899.899 0 0 0-.16-.54 17.97 17.97 0 0 0-.223-.35l1.755-.063c.32-.021.543.021.671.127.149.085.223.19.223.318 0 .127-.074.36-.223.7l-2.65 6.198-.191.413a4.91 4.91 0 0 0-.192.509 17 17 0 0 1-.127.603.991.991 0 0 0-.032.16v.254c0 .275.064.508.191.699.149.19.394.286.735.286.212 0 .457-.063.734-.19.276-.128.478-.255.606-.382.532-.551 1.053-1.272 1.564-2.162a48.852 48.852 0 0 0 1.468-2.701c.085-.212.192-.318.32-.318.106 0 .159.074.159.222 0 .085-.032.212-.096.381-.212.446-.478.997-.798 1.654a15.709 15.709 0 0 1-1.149 1.97 7.35 7.35 0 0 1-1.404 1.59c-.511.423-1.064.635-1.66.635Z"/><path d="M206.078 37.655c.766-1.547 1.5-3.073 2.202-4.578a92.593 92.593 0 0 1 2.203-4.354c.425-.763.777-1.293 1.053-1.59.298-.318.692-.477 1.181-.477.17 0 .351.032.543.096.191.042.383.063.574.063.128 0 .224-.01.288-.032-.298.17-.681.594-1.149 1.272-.469.657-.947 1.42-1.437 2.289a58.962 58.962 0 0 0-1.308 2.447 76.81 76.81 0 0 1 1.244-1.462c.447-.487.937-.954 1.469-1.399.51-.445 1.117-.9 1.819-1.366.723-.488 1.426-.89 2.107-1.208.681-.318 1.223-.477 1.627-.477.149 0 .256.01.32.032l-.352.635c-.234.403-.531.943-.893 1.622a66.897 66.897 0 0 0-1.054 2.13 47.494 47.494 0 0 0-.989 2.16c-.277.679-.458 1.251-.543 1.717a3.44 3.44 0 0 0-.095.763c0 .34.063.562.191.668a.638.638 0 0 0 .415.159c.404 0 .83-.212 1.277-.636a9.408 9.408 0 0 0 1.277-1.621c.425-.636.798-1.25 1.117-1.844.34-.614.585-1.08.734-1.399.085-.17.149-.264.191-.286.043-.042.107-.063.192-.063.128 0 .191.085.191.254a.798.798 0 0 1-.095.35c-.256.487-.564 1.07-.926 1.748a17.66 17.66 0 0 1-1.181 2.003 8.376 8.376 0 0 1-1.468 1.62c-.532.425-1.107.637-1.724.637-.425 0-.872-.149-1.34-.445-.447-.297-.671-.848-.671-1.653 0-.234.022-.477.064-.731.043-.276.117-.573.224-.89.17-.424.372-.88.606-1.367.234-.488.617-1.155 1.149-2.003.149-.233.234-.413.255-.54a1.03 1.03 0 0 0 .064-.318c0-.255-.117-.382-.351-.382-.191 0-.479.106-.862.318-.361.212-.819.583-1.372 1.113-.532.508-1.171 1.229-1.915 2.161-.724.933-1.564 2.31-2.522 4.133-.149.275-.319.423-.511.445-.17.02-.414.042-.734.063a6.115 6.115 0 0 1-.606.032.883.883 0 0 0-.479.19Z"/><path d="M216.833 37.56c.787-1.505 1.532-3.01 2.234-4.515a82.527 82.527 0 0 1 2.138-4.323c.426-.762.777-1.292 1.054-1.589.298-.318.691-.477 1.181-.477.17 0 .351.032.542.096.192.042.383.063.575.063.128 0 .223-.01.287-.032-.298.17-.681.594-1.149 1.272-.468.657-.947 1.42-1.436 2.289-.49.868-.926 1.684-1.309 2.447.404-.487.819-.975 1.245-1.462.447-.487.936-.954 1.468-1.399.468-.402.958-.837 1.468-1.303.532-.487 1.054-.9 1.564-1.24.511-.339.958-.508 1.341-.508.149 0 .245.01.287.032.405.17.607.445.607.826 0 .127-.053.318-.16.572-.276.72-.638 1.462-1.085 2.225-.426.742-.83 1.494-1.213 2.257.319-.381.713-.847 1.181-1.398.489-.551.979-1.039 1.468-1.463.468-.423 1.064-.868 1.788-1.335a20.023 20.023 0 0 1 2.138-1.207c.702-.34 1.266-.51 1.692-.51.149 0 .255.012.319.033l-.351.635c-.234.403-.532.943-.894 1.622-.34.657-.691 1.366-1.053 2.13a45.412 45.412 0 0 0-.989 2.16c-.277.679-.458 1.251-.543 1.717-.064.276-.096.53-.096.763 0 .34.064.562.192.668a.636.636 0 0 0 .415.159c.425 0 .861-.223 1.308-.668a9.927 9.927 0 0 0 1.277-1.59c.426-.635.798-1.25 1.117-1.843.319-.614.553-1.08.702-1.399.128-.233.256-.35.383-.35.128 0 .192.086.192.255a.787.787 0 0 1-.096.35c-.255.487-.564 1.07-.925 1.748a17.81 17.81 0 0 1-1.181 2.003 7.855 7.855 0 0 1-1.501 1.62c-.532.425-1.106.637-1.723.637-.447 0-.905-.149-1.373-.445-.447-.297-.67-.848-.67-1.653 0-.446.096-.986.287-1.622.149-.423.373-.91.671-1.462.319-.55.702-1.186 1.149-1.907.212-.36.319-.646.319-.858 0-.255-.128-.382-.383-.382-.213 0-.511.106-.894.318-.362.212-.819.583-1.372 1.113-.341.318-.745.763-1.213 1.335-.447.55-.905 1.155-1.373 1.812a18.097 18.097 0 0 0-1.213 1.939c-.34.635-.564 1.197-.67 1.684a.91.91 0 0 1-.766-.381 1.626 1.626 0 0 1-.287-.954v-.19c0-.064.01-.138.032-.223a8.38 8.38 0 0 1 .51-1.844c.234-.572.5-1.165.798-1.78.234-.445.468-.921.702-1.43.234-.53.352-.932.352-1.208 0-.17-.064-.254-.192-.254-.149 0-.394.116-.734.35-.341.211-.809.593-1.405 1.144-.532.508-1.181 1.24-1.947 2.193-.744.954-1.564 2.31-2.457 4.069-.128.233-.277.381-.447.445-.17.042-.436.063-.798.063h-.575c-.17.022-.34.075-.51.16Z"/><path d="M238.339 37.528c-.787 0-1.5-.255-2.139-.763-.617-.509-.925-1.282-.925-2.32 0-.954.234-1.972.702-3.052a10.717 10.717 0 0 1 1.787-2.893 8.662 8.662 0 0 1 2.075-1.78c.766-.466 1.49-.7 2.171-.7.468 0 .872.128 1.213.382.361.275.542.668.542 1.176 0 .53-.202 1.113-.606 1.748-.405.636-.979 1.23-1.724 1.78a6.314 6.314 0 0 1-1.213.668c-.489.212-.979.392-1.468.54-.489.128-.894.191-1.213.191a7.38 7.38 0 0 0-.319 1.017 6.613 6.613 0 0 0-.128 1.304c0 .53.107 1.006.319 1.43.213.424.607.636 1.181.636.703 0 1.341-.202 1.915-.604a6.8 6.8 0 0 0 1.533-1.494c.446-.615.819-1.23 1.117-1.844.319-.614.574-1.134.766-1.557.127-.297.298-.445.51-.445.107 0 .16.053.16.159 0 .084-.032.19-.096.317l-.957 2.035c-.341.7-.745 1.367-1.213 2.002a5.682 5.682 0 0 1-1.692 1.494c-.638.382-1.404.573-2.298.573Zm-.575-5.595c.298 0 .798-.106 1.501-.318a5.73 5.73 0 0 0 1.915-1.08c.553-.488.979-1.018 1.277-1.59.297-.593.446-1.091.446-1.494 0-.466-.17-.7-.51-.7-.256 0-.607.17-1.054.51-.447.338-1 .91-1.659 1.716-.405.508-.788 1.06-1.149 1.653a32.912 32.912 0 0 0-.767 1.303Z"/><path d="M240.958 37.655c.766-1.547 1.5-3.073 2.202-4.578a92.593 92.593 0 0 1 2.203-4.354c.425-.763.776-1.293 1.053-1.59.298-.318.691-.477 1.181-.477.17 0 .351.032.542.096.192.042.384.063.575.063.128 0 .223-.01.287-.032-.298.17-.681.594-1.149 1.272-.468.657-.947 1.42-1.436 2.289-.49.868-.926 1.684-1.309 2.447.405-.487.819-.975 1.245-1.462.447-.487.936-.954 1.468-1.399.511-.445 1.117-.9 1.82-1.366.723-.488 1.425-.89 2.106-1.208.681-.318 1.224-.477 1.628-.477.149 0 .255.01.319.032l-.351.635c-.234.403-.532.943-.894 1.622-.34.657-.691 1.366-1.053 2.13a46.43 46.43 0 0 0-.989 2.16c-.277.679-.458 1.251-.543 1.717-.064.276-.096.53-.096.763 0 .34.064.562.192.668a.638.638 0 0 0 .415.159c.404 0 .83-.212 1.277-.636a9.405 9.405 0 0 0 1.276-1.621c.426-.636.798-1.25 1.117-1.844.341-.614.586-1.08.735-1.399.085-.17.149-.264.191-.286.043-.042.106-.063.192-.063.127 0 .191.085.191.254a.787.787 0 0 1-.096.35c-.255.487-.564 1.07-.925 1.748a17.66 17.66 0 0 1-1.181 2.003 8.38 8.38 0 0 1-1.469 1.62c-.532.425-1.106.637-1.723.637-.426 0-.873-.149-1.341-.445-.447-.297-.67-.848-.67-1.653 0-.234.021-.477.064-.731.042-.276.117-.573.223-.89.17-.424.373-.88.607-1.367.234-.488.617-1.155 1.149-2.003.149-.233.234-.413.255-.54a1.03 1.03 0 0 0 .064-.318c0-.255-.117-.382-.351-.382-.192 0-.479.106-.862.318-.362.212-.819.583-1.372 1.113-.532.508-1.171 1.229-1.916 2.161-.723.933-1.564 2.31-2.521 4.133-.149.275-.319.423-.511.445-.17.02-.415.042-.734.063a6.13 6.13 0 0 1-.606.032.88.88 0 0 0-.479.19Z"/><path d="M256.277 37.4a2.38 2.38 0 0 1-1.596-.604c-.468-.423-.702-1.08-.702-1.97 0-.7.127-1.558.383-2.575.276-1.038.606-2.109.989-3.21.404-1.124.798-2.14 1.181-3.052h-1.692c-.149 0-.223-.106-.223-.318 0-.106.021-.201.064-.286a.304.304 0 0 1 .255-.127h1.915A40.58 40.58 0 0 1 258 22.906c.405-.763.798-1.484 1.181-2.162.49-.848 1.011-1.483 1.564-1.907.554-.424 1.032-.636 1.437-.636a1 1 0 0 1 .798.381c.212.234.319.594.319 1.081 0 .297-.064.71-.192 1.24a8.515 8.515 0 0 1-.606 1.621l-.639 1.271c-.255.551-.51 1.039-.766 1.463h1.533c.148 0 .223.106.223.318a.77.77 0 0 1-.064.286c-.042.084-.106.127-.191.127h-1.884a23.683 23.683 0 0 1-1.819 2.67 22.56 22.56 0 0 1-2.426 2.607c-.064.19-.149.466-.255.826-.085.36-.17.731-.255 1.113-.064.36-.128.667-.192.921l-.064.382c-.064.275-.096.53-.096.763 0 .445.107.773.32.985.212.19.457.286.734.286.17 0 .34-.021.51-.064.171-.063.362-.169.575-.317.745-.53 1.394-1.25 1.947-2.162a30.995 30.995 0 0 0 1.5-2.638c.128-.255.256-.382.383-.382.085 0 .128.064.128.191 0 .064-.032.18-.096.35a59.993 59.993 0 0 1-1.181 2.352 12.547 12.547 0 0 1-.925 1.494c-.298.381-.649.763-1.054 1.144-.298.297-.638.52-1.021.668a3.16 3.16 0 0 1-1.149.222Zm2.521-12.142h1.628c.298-.551.575-1.092.83-1.621.277-.53.521-1.06.734-1.59.149-.339.277-.72.383-1.144.107-.424.16-.752.16-.985 0-.318-.075-.477-.224-.477-.106 0-.266.095-.478.286-.192.17-.437.466-.735.89-.383.53-.766 1.218-1.149 2.066a185.72 185.72 0 0 1-1.149 2.575Zm-2.074 4.99a19.83 19.83 0 0 0 1.723-2.034 25.882 25.882 0 0 0 1.532-2.225h-1.5c-.34.784-.66 1.547-.957 2.288a349.52 349.52 0 0 1-.798 1.971ZM293.46 47c-.192 0-.234-.148-.128-.445.128-.276.245-.53.351-.763.192-.381.288-.975.288-1.78 0-.7-.128-1.452-.384-2.257-.255-.805-.755-1.536-1.5-2.193a12.299 12.299 0 0 0-3.447-2.225 24.838 24.838 0 0 0-4.022-1.335 75.492 75.492 0 0 0-4.117-.89 22.408 22.408 0 0 1-2.681 3.083c-.937.911-1.937 1.61-3.001 2.098a8.826 8.826 0 0 1-1.723.604 6.053 6.053 0 0 1-1.564.222c-1.192 0-2.171-.318-2.937-.953-.744-.615-1.117-1.346-1.117-2.194 0-.805.362-1.589 1.085-2.352.745-.784 1.969-1.43 3.671-1.939a13.5 13.5 0 0 1 2.266-.413c.83-.106 1.692-.159 2.586-.159.553 0 1.095.021 1.627.064a8.412 8.412 0 0 1 1.533.19 35.81 35.81 0 0 0 1.723-2.892c.532-1.017 1.085-2.12 1.66-3.306-1.681.042-3.139-.201-4.373-.731-1.234-.551-2.192-1.282-2.873-2.193-.659-.912-.989-1.886-.989-2.925 0-.848.245-1.674.734-2.48.489-.826 1.256-1.567 2.298-2.224 1.064-.678 2.415-1.208 4.054-1.59a.786.786 0 0 1 .287-.063h.287c.32 0 .479.063.479.19 0 .212-.34.36-1.021.446a5.794 5.794 0 0 0-2.937 1.176 7.13 7.13 0 0 0-1.947 2.352c-.447.911-.67 1.833-.67 2.765 0 .806.191 1.558.574 2.257.383.7.99 1.272 1.82 1.717.83.424 1.904.635 3.224.635.468 0 .968-.031 1.5-.095.085-.17.223-.509.415-1.017.213-.53.447-1.123.702-1.78.255-.657.5-1.293.734-1.907.255-.615.458-1.123.607-1.526l.255-.636c.979-2.437 1.979-4.344 3-5.722 1.043-1.398 2.043-2.384 3.001-2.956.978-.572 1.851-.858 2.617-.858.83 0 1.511.244 2.043.731.553.488.851 1.039.893 1.653.022.19.032.329.032.413v.318c0 1.25-.255 2.5-.766 3.751a13.771 13.771 0 0 1-2.074 3.56 17.942 17.942 0 0 1-3.033 3.052 18.086 18.086 0 0 1-3.638 2.288 14.955 14.955 0 0 1-3.894 1.272l-.862 1.716c-.234.488-.5 1.017-.798 1.59-.298.572-.692 1.303-1.181 2.193a8.235 8.235 0 0 1-.351.604c-.064.106-.171.275-.32.509 1.064.254 2.224.614 3.48 1.08a28.46 28.46 0 0 1 3.702 1.621 19.693 19.693 0 0 1 3.288 2.035c1.191.911 2.032 1.939 2.521 3.083.511 1.144.766 2.151.766 3.02 0 .614-.095 1.08-.287 1.399-.277.466-.553.762-.83.89-.276.148-.489.222-.638.222Zm-8.044-20.82c1.447-.318 2.862-.89 4.246-1.717a17.814 17.814 0 0 0 3.734-3.052 15.644 15.644 0 0 0 2.649-3.91c.66-1.42.99-2.86.99-4.322 0-.36-.096-.657-.288-.89-.191-.233-.468-.35-.829-.35-.49 0-1.118.275-1.884.826-.766.53-1.638 1.43-2.617 2.702-.979 1.25-2.032 2.978-3.16 5.182l-.447.826c-.276.551-.638 1.25-1.085 2.098-.426.826-.862 1.695-1.309 2.607Zm-14.331 14.018a6.47 6.47 0 0 0 1.5-.191 8.858 8.858 0 0 0 1.724-.604c1.787-.869 3.436-2.373 4.947-4.514-.489-.106-1-.18-1.532-.222a13.709 13.709 0 0 0-1.628-.096c-.574 0-1.17.032-1.787.096a9.91 9.91 0 0 0-1.756.35c-1.425.38-2.521.868-3.287 1.461-.745.594-1.118 1.198-1.118 1.812 0 .53.266.975.798 1.335.532.382 1.245.573 2.139.573Z"/><path d="M295.848 24.495c-.319 0-.585-.106-.798-.318a1.264 1.264 0 0 1-.287-.826c0-.403.159-.753.479-1.05.319-.296.67-.444 1.053-.444.34 0 .617.105.83.317.212.212.319.467.319.763 0 .403-.16.763-.479 1.081a1.533 1.533 0 0 1-1.117.477ZM293.263 37.4c-.788 0-1.341-.222-1.66-.667a2.748 2.748 0 0 1-.479-1.59c0-.317.032-.635.096-.953a7.97 7.97 0 0 1 .287-.922l2.139-5.436c.063-.17.095-.317.095-.445a.905.905 0 0 0-.159-.54 16.64 16.64 0 0 0-.224-.35l1.756-.063c.319-.021.542.021.67.127.149.085.224.19.224.318 0 .127-.075.36-.224.7l-2.649 6.198-.192.413c-.106.254-.17.424-.191.509-.064.317-.107.519-.128.603a.991.991 0 0 0-.032.16v.254c0 .275.064.508.192.699.149.19.393.286.734.286.213 0 .457-.063.734-.19.277-.128.479-.255.607-.382.532-.551 1.053-1.272 1.564-2.162a49.526 49.526 0 0 0 1.468-2.701c.085-.212.191-.318.319-.318.106 0 .16.074.16.222 0 .085-.032.212-.096.381-.213.446-.479.997-.798 1.654a15.709 15.709 0 0 1-1.149 1.97 7.38 7.38 0 0 1-1.405 1.59c-.51.423-1.064.635-1.659.635Z"/><path d="M294.883 37.56c.788-1.505 1.533-3.01 2.235-4.515a82.527 82.527 0 0 1 2.138-4.323c.426-.762.777-1.292 1.054-1.589.297-.318.691-.477 1.181-.477.17 0 .351.032.542.096.192.042.383.063.575.063.127 0 .223-.01.287-.032-.298.17-.681.594-1.149 1.272-.468.657-.947 1.42-1.436 2.289-.49.868-.926 1.684-1.309 2.447.404-.487.819-.975 1.245-1.462.447-.487.936-.954 1.468-1.399.468-.402.958-.837 1.468-1.303.532-.487 1.054-.9 1.564-1.24.511-.339.958-.508 1.341-.508.149 0 .245.01.287.032.404.17.607.445.607.826 0 .127-.054.318-.16.572-.277.72-.638 1.462-1.085 2.225-.426.742-.83 1.494-1.213 2.257.319-.381.713-.847 1.181-1.398.489-.551.979-1.039 1.468-1.463.468-.423 1.064-.868 1.788-1.335a20.023 20.023 0 0 1 2.138-1.207c.702-.34 1.266-.51 1.692-.51.149 0 .255.012.319.033l-.351.635c-.234.403-.532.943-.894 1.622-.34.657-.691 1.366-1.053 2.13a46.474 46.474 0 0 0-.99 2.16c-.276.679-.457 1.251-.542 1.717-.064.276-.096.53-.096.763 0 .34.064.562.191.668a.638.638 0 0 0 .415.159c.426 0 .862-.223 1.309-.668a9.982 9.982 0 0 0 1.277-1.59c.425-.635.798-1.25 1.117-1.843.319-.614.553-1.08.702-1.399.128-.233.256-.35.383-.35.128 0 .192.086.192.255a.787.787 0 0 1-.096.35c-.255.487-.564 1.07-.926 1.748-.34.678-.734 1.346-1.181 2.003a7.878 7.878 0 0 1-1.5 1.62c-.532.425-1.106.637-1.723.637-.447 0-.905-.149-1.373-.445-.447-.297-.67-.848-.67-1.653 0-.446.096-.986.287-1.622a10.4 10.4 0 0 1 .67-1.462c.32-.55.703-1.186 1.149-1.907.213-.36.32-.646.32-.858 0-.255-.128-.382-.383-.382-.213 0-.511.106-.894.318-.362.212-.819.583-1.373 1.113-.34.318-.744.763-1.213 1.335-.446.55-.904 1.155-1.372 1.812a17.94 17.94 0 0 0-1.213 1.939c-.34.635-.564 1.197-.67 1.684a.91.91 0 0 1-.766-.381 1.627 1.627 0 0 1-.288-.954v-.19c0-.064.011-.138.032-.223a8.437 8.437 0 0 1 .511-1.844c.234-.572.5-1.165.798-1.78.234-.445.468-.921.702-1.43.234-.53.351-.932.351-1.208 0-.17-.064-.254-.191-.254-.149 0-.394.116-.734.35-.341.211-.809.593-1.405 1.144-.532.508-1.181 1.24-1.947 2.193-.745.954-1.564 2.31-2.458 4.069-.127.233-.276.381-.446.445-.171.042-.437.063-.798.063h-.575a1.59 1.59 0 0 0-.511.16Z"/><path d="M317.698 24.495c-.319 0-.585-.106-.797-.318a1.26 1.26 0 0 1-.288-.826c0-.403.16-.753.479-1.05.319-.296.67-.444 1.053-.444.341 0 .617.105.83.317.213.212.319.467.319.763 0 .403-.159.763-.478 1.081-.32.318-.692.477-1.118.477ZM315.113 37.4c-.787 0-1.341-.222-1.66-.667a2.748 2.748 0 0 1-.478-1.59c0-.317.031-.635.095-.953.085-.34.181-.646.288-.922l2.138-5.436c.064-.17.096-.317.096-.445a.899.899 0 0 0-.16-.54 17.97 17.97 0 0 0-.223-.35l1.755-.063c.32-.021.543.021.671.127.149.085.223.19.223.318 0 .127-.074.36-.223.7l-2.65 6.198-.191.413c-.107.254-.17.424-.192.509a17 17 0 0 1-.127.603.883.883 0 0 0-.032.16v.254c0 .275.064.508.191.699.149.19.394.286.734.286.213 0 .458-.063.735-.19.276-.128.478-.255.606-.382.532-.551 1.053-1.272 1.564-2.162a48.852 48.852 0 0 0 1.468-2.701c.085-.212.192-.318.319-.318.107 0 .16.074.16.222 0 .085-.032.212-.096.381-.213.446-.479.997-.798 1.654a15.709 15.709 0 0 1-1.149 1.97 7.35 7.35 0 0 1-1.404 1.59c-.511.423-1.064.635-1.66.635Z"/><path d="M321.298 37.4a2.38 2.38 0 0 1-1.596-.604c-.468-.423-.702-1.08-.702-1.97 0-.7.128-1.558.383-2.575.277-1.038.607-2.109.99-3.21.404-1.124.798-2.14 1.181-3.052h-1.692c-.149 0-.223-.106-.223-.318 0-.106.021-.201.063-.286a.304.304 0 0 1 .256-.127h1.915a40.58 40.58 0 0 1 1.149-2.352 90.91 90.91 0 0 1 1.181-2.162c.489-.848 1.011-1.483 1.564-1.907.553-.424 1.032-.636 1.436-.636a1 1 0 0 1 .798.381c.213.234.319.594.319 1.081 0 .297-.063.71-.191 1.24a8.522 8.522 0 0 1-.607 1.621l-.638 1.271a15.358 15.358 0 0 1-.766 1.463h1.532c.149 0 .223.106.223.318 0 .084-.021.18-.063.286-.043.084-.107.127-.192.127h-1.883a23.683 23.683 0 0 1-1.819 2.67 22.648 22.648 0 0 1-2.426 2.607c-.064.19-.149.466-.256.826-.085.36-.17.731-.255 1.113-.064.36-.128.667-.191.921l-.064.382c-.064.275-.096.53-.096.763 0 .445.106.773.319.985.213.19.458.286.734.286.171 0 .341-.021.511-.064.17-.063.362-.169.575-.317.744-.53 1.393-1.25 1.947-2.162a31.549 31.549 0 0 0 1.5-2.638c.127-.255.255-.382.383-.382.085 0 .127.064.127.191 0 .064-.031.18-.095.35a59.993 59.993 0 0 1-1.181 2.352c-.32.593-.628 1.091-.926 1.494-.298.381-.649.763-1.053 1.144-.298.297-.639.52-1.022.668a3.16 3.16 0 0 1-1.149.222Zm2.522-12.142h1.628c.298-.551.574-1.092.83-1.621.276-.53.521-1.06.734-1.59.149-.339.276-.72.383-1.144.106-.424.159-.752.159-.985 0-.318-.074-.477-.223-.477-.107 0-.266.095-.479.286-.191.17-.436.466-.734.89-.383.53-.766 1.218-1.149 2.066-.362.826-.745 1.685-1.149 2.575Zm-2.075 4.99a19.84 19.84 0 0 0 1.724-2.034 25.882 25.882 0 0 0 1.532-2.225h-1.5a88.07 88.07 0 0 0-.958 2.288 349.52 349.52 0 0 1-.798 1.971Z"/><path d="M328.422 37.528c-.788 0-1.501-.255-2.139-.763-.617-.509-.926-1.282-.926-2.32 0-.954.234-1.972.703-3.052a10.717 10.717 0 0 1 1.787-2.893 8.643 8.643 0 0 1 2.075-1.78c.766-.466 1.489-.7 2.17-.7.468 0 .873.128 1.213.382.362.275.543.668.543 1.176 0 .53-.202 1.113-.607 1.748-.404.636-.979 1.23-1.723 1.78-.32.234-.724.456-1.213.668-.49.212-.979.392-1.468.54-.49.128-.894.191-1.213.191a7.363 7.363 0 0 0-.32 1.017 6.613 6.613 0 0 0-.127 1.304c0 .53.106 1.006.319 1.43.213.424.606.636 1.181.636a3.26 3.26 0 0 0 1.915-.604 6.796 6.796 0 0 0 1.532-1.494 12.17 12.17 0 0 0 1.117-1.844c.319-.614.575-1.134.766-1.557.128-.297.298-.445.511-.445.106 0 .16.053.16.159 0 .084-.032.19-.096.317-.298.636-.617 1.314-.958 2.035-.34.7-.744 1.367-1.213 2.002a5.69 5.69 0 0 1-1.691 1.494c-.639.382-1.405.573-2.298.573Zm-.575-5.595c.298 0 .798-.106 1.5-.318a5.72 5.72 0 0 0 1.915-1.08c.554-.488.979-1.018 1.277-1.59.298-.593.447-1.091.447-1.494 0-.466-.17-.7-.511-.7-.255 0-.606.17-1.053.51-.447.338-1 .91-1.66 1.716-.404.508-.787 1.06-1.149 1.653a32.571 32.571 0 0 0-.766 1.303Z"/><path d="M341.127 37.4c-.575 0-1.054-.286-1.437-.858a3.119 3.119 0 0 1-.415-1.59c0-.19.011-.38.032-.571.022-.212.064-.424.128-.636a41.2 41.2 0 0 1-1.053 1.557 7.31 7.31 0 0 1-1.341 1.463 2.543 2.543 0 0 1-2.33.508c-.574-.17-.989-.466-1.245-.89-.234-.424-.351-.932-.351-1.526 0-.657.128-1.377.383-2.161.277-.784.617-1.547 1.022-2.289a12.91 12.91 0 0 1 1.308-1.907 7.687 7.687 0 0 1 2.203-1.78c.829-.445 1.67-.668 2.521-.668.766 0 1.49.202 2.171.604.319-.593.659-1.25 1.021-1.97.362-.742.723-1.473 1.085-2.194.362-.72.681-1.377.958-1.97.276-.615.489-1.081.638-1.4.319-.74.617-1.207.894-1.398a1.77 1.77 0 0 1 1.053-.318c.234 0 .49.032.766.096.298.042.585.053.862.032-.128.127-.394.498-.798 1.112-.383.593-.84 1.356-1.372 2.289-.532.932-1.107 1.96-1.724 3.083a233.686 233.686 0 0 0-1.787 3.37 430.276 430.276 0 0 0-1.628 3.21c-.49.996-.883 1.854-1.181 2.575-.085.17-.213.519-.383 1.049-.149.508-.224.953-.224 1.335 0 .275.064.519.192.73.127.191.34.287.638.287.404 0 .809-.201 1.213-.604.426-.424.83-.932 1.213-1.526.383-.614.723-1.208 1.021-1.78.298-.593.522-1.06.671-1.399.106-.233.234-.35.383-.35.127 0 .191.096.191.287v.127a.305.305 0 0 1-.064.159c-.191.445-.457.996-.798 1.653a15.702 15.702 0 0 1-1.149 1.97 7.553 7.553 0 0 1-1.5 1.654c-.553.423-1.149.635-1.787.635Zm-5.522-.953c.298 0 .67-.16 1.117-.477.447-.34.926-.869 1.436-1.59a54.838 54.838 0 0 0 2.043-3.178 78.537 78.537 0 0 0 2.266-4.037 1.372 1.372 0 0 0-.957-.381c-.596 0-1.266.275-2.011.826-.724.55-1.437 1.25-2.139 2.098a16.975 16.975 0 0 0-1.723 2.575 9.05 9.05 0 0 0-.703 1.62c-.127.488-.191.912-.191 1.272 0 .848.287 1.272.862 1.272Z"/></g><defs><filter id="a" x="31" y="10" width="323" height="45" filterUnits="userSpaceOnUse" color-interpolation-filters="sRGB"><feFlood flood-opacity="0" result="BackgroundImageFix"/><feColorMatrix in="SourceAlpha" values="0 0 0 0 0 0 0 0 0 0 0 0 0 0 0 0 0 0 127 0" result="hardAlpha"/><feOffset dy="4"/><feGaussianBlur stdDeviation="2"/><feComposite in2="hardAlpha" operator="out"/><feColorMatrix values="0 0 0 0 0 0 0 0 0 0 0 0 0 0 0 0 0 0 0.25 0"/><feBlend in2="BackgroundImageFix" result="effect1_dropShadow_377_74"/><feBlend in="SourceGraphic" in2="effect1_dropShadow_377_74" result="shape"/></filter></defs></svg>